<svg xmlns="http://www.w3.org/2000/svg" width="100" height="100" viewBox="0 0 100 100">
  <g id="Path_17" fill="#fff">
    <path d="M 50 99 C 43.38460159301758 99 36.96761322021484 97.70458984375 30.92729377746582 95.14974975585938 C 25.09253311157227 92.68185424804688 19.85215950012207 89.14862823486328 15.35177326202393 84.64822387695312 C 10.85137367248535 80.14784240722656 7.318146705627441 74.90746307373047 4.850253105163574 69.07270812988281 C 2.295413255691528 63.03238677978516 1 56.61539840698242 1 50 C 1 46.27554702758789 1.419626712799072 42.56729507446289 2.247213363647461 38.97826766967773 C 3.053906679153442 35.47985458374023 4.255253314971924 32.06245422363281 5.817893505096436 28.82102584838867 C 7.355546474456787 25.63139915466309 9.25330638885498 22.59020042419434 11.45843982696533 19.78189277648926 C 13.65147972106934 16.98898696899414 16.16045379638672 14.41109371185303 18.9156665802002 12.11981296539307 C 27.53587913513184 4.949066638946533 38.57513427734375 1 50 1 C 56.61539840698242 1 63.03238677978516 2.295413255691528 69.07270812988281 4.850253105163574 C 74.90746307373047 7.318146705627441 80.14784240722656 10.85137367248535 84.64822387695312 15.35177326202393 C 89.14862823486328 19.85215950012207 92.68185424804688 25.09253311157227 95.14974975585938 30.92729377746582 C 97.70458984375 36.96761322021484 99 43.38460159301758 99 50 C 99 56.61539840698242 97.70458984375 63.03238677978516 95.14974975585938 69.07270812988281 C 92.68185424804688 74.90746307373047 89.14862823486328 80.14784240722656 84.64822387695312 84.64822387695312 C 80.14784240722656 89.14862823486328 74.90746307373047 92.68185424804688 69.07270812988281 95.14974975585938 C 63.03238677978516 97.70458984375 56.61539840698242 99 50 99 Z" stroke="none"/>
    <path d="M 50 2 C 38.80830001831055 2 27.99615478515625 5.866943359375 19.55506896972656 12.88868713378906 C 16.85398864746094 15.13494110107422 14.39451599121094 17.66194152832031 12.24494171142578 20.39947509765625 C 10.08432769775391 23.15106964111328 8.225028991699219 26.13059997558594 6.718673706054688 29.25527191162109 C 5.188240051269531 32.42991638183594 4.011672973632812 35.77680206298828 3.221641540527344 39.20295715332031 C 2.4110107421875 42.71839904785156 2 46.35105895996094 2 50 C 2 56.48084259033203 3.268829345703125 62.76675796508789 5.771255493164062 68.68314361572266 C 8.188743591308594 74.39871215820312 11.64998626708984 79.53224182128906 16.05886840820312 83.94113159179688 C 20.46775817871094 88.34999847412109 25.60127258300781 91.81125640869141 31.31684112548828 94.22874450683594 C 37.23324203491211 96.73117065429688 43.51915740966797 98 50 98 C 56.48084259033203 98 62.76675796508789 96.73117065429688 68.68314361572266 94.22874450683594 C 74.39871215820312 91.81125640869141 79.53224182128906 88.34999847412109 83.94113159179688 83.94113159179688 C 88.34999847412109 79.53224182128906 91.81125640869141 74.39871215820312 94.22874450683594 68.68314361572266 C 96.73117065429688 62.76675796508789 98 56.48084259033203 98 50 C 98 43.51915740966797 96.73117065429688 37.23324203491211 94.22874450683594 31.31684112548828 C 91.81125640869141 25.60127258300781 88.34999847412109 20.46775817871094 83.94113159179688 16.05886840820312 C 79.53224182128906 11.64998626708984 74.39871215820312 8.188743591308594 68.68314361572266 5.771255493164062 C 62.76675796508789 3.268829345703125 56.48084259033203 2 50 2 M 50 0 C 77.61422729492188 0 100 22.38575744628906 100 50 C 100 77.61422729492188 77.61422729492188 100 50 100 C 22.38575744628906 100 0 77.61422729492188 0 50 C 0 34.53602600097656 7.020172119140625 20.71170043945312 18.27626037597656 11.35094451904297 C 26.71171569824219 4.333885192871094 37.8497428894043 0 50 0 Z" stroke="#465FC2" fill="#465FC2"/>
  </g>
  <circle id="Ellipse_23" cx="20" cy="20" r="20" transform="translate(30 14)" fill="#465fc2"/>
  <path id="Path_11" d="M40.5,0C62.868,0,79,8.954,79,20s-16.132,7.21-38.5,7.21S2,31.046,2,20,18.132,0,40.5,0Z" transform="translate(9 52)" fill="#465fc2"/>
</svg>
